<?xml version="1.0" encoding="UTF-8"?>
<!DOCTYPE svg PUBLIC "-//W3C//DTD SVG 1.1//EN" "http://www.w3.org/Graphics/SVG/1.1/DTD/svg11.dtd">
<!-- Creator: CorelDRAW -->
<svg xmlns="http://www.w3.org/2000/svg" xml:space="preserve" width="102.251mm" height="121.879mm" version="1.1" style="shape-rendering:geometricPrecision; text-rendering:geometricPrecision; image-rendering:optimizeQuality; fill-rule:evenodd; clip-rule:evenodd"
viewBox="0 0 10225.06 12187.94"
 xmlns:xlink="http://www.w3.org/1999/xlink"
 xmlns:xodm="http://www.corel.com/coreldraw/odm/2003">
 <defs>
  <style type="text/css">
   <![CDATA[
    .fil3 {fill:#212222;fill-rule:nonzero}
    .fil2 {fill:#D29108;fill-rule:nonzero}
    .fil1 {fill:#DCA627;fill-rule:nonzero}
    .fil0 {fill:#FBC502;fill-rule:nonzero}
   ]]>
  </style>
 </defs>
 <g id="Слой_x0020_1">
  <metadata id="CorelCorpID_0Corel-Layer"/>
  <g id="_1878303634544">
   <polygon class="fil0" points="7270.17,7203.28 7006.12,6523.09 8061.03,4560.36 9375.99,4472.25 7270.59,8435.55 "/>
   <polygon class="fil0" points="2227.25,2784.14 2227.25,3894.46 1265.45,3339.23 1265.45,2228.91 2226.67,2784.14 "/>
   <polygon class="fil0" points="5112.79,4450.12 5112.79,5560.43 4150.99,5005.2 4150.99,3894.88 "/>
   <polygon class="fil0" points="3847.38,6641.62 3846.81,6641.62 2885.15,6086.53 2885.15,8307.74 961.7,7197.42 961.7,4976.21 -0.53,4420.41 -0.53,8862.83 -0.53,9973.72 0.47,9973.72 961.13,10528.95 961.7,10528.95 961.7,9418.63 961.7,8308.17 1923.35,8863.4 2885.15,9418.63 2885.15,11639.84 3846.81,12194.93 3847.38,12194.93 3847.38,9973.72 3847.38,8863.4 3846.81,8862.83 3847.38,8862.83 "/>
   <polygon class="fil0" points="6377.34,6641.76 6377.34,12194.93 5415.68,11639.84 5415.68,6086.53 "/>
   <polygon class="fil1" points="10224.54,9978.29 10224.54,9978.86 9262.74,10533.95 9165.06,10601.07 9158.92,10604.07 8376.06,10150.09 8178.56,10036.27 8301.08,9978.29 9262.74,9423.2 "/>
   <polygon class="fil1" points="9337,10496.82 8178.41,10035.84 7339,9410.64 7340.57,9192 "/>
   <polygon class="fil2" points="7998.19,1673.1 7036.53,1118.02 7035.96,1118.02 6074.31,562.79 5112.5,7.13 4151.28,562.36 4151.28,562.79 4150.28,562.79 3189.05,1118.02 1265.59,2228.34 1265.59,2228.91 2226.39,2783.99 2227.39,2783.99 2227.39,2783.57 4150.28,1673.1 4151.28,1673.1 5112.5,1118.02 7035.96,2228.34 7035.96,2228.91 5112.5,3339.23 4151.28,3894.31 4151.28,3894.88 5112.5,4450.12 6074.31,3894.31 7035.96,3339.23 7036.53,3339.23 7998.19,2783.99 8959.99,2228.91 8959.99,2228.34 "/>
   <polygon class="fil2" points="1923.5,4420.55 961.84,4975.79 961.84,4976.21 -0.53,4420.55 961.84,3865.47 "/>
   <polygon class="fil2" points="4809.04,6086.68 3847.24,6641.76 3846.81,6641.76 2885.01,6086.68 3847.24,5531.45 "/>
   <polygon class="fil2" points="2885.15,7197.57 2885.15,8307.89 962.12,7197.57 1923.35,6642.34 "/>
   <polygon class="fil2" points="10224.54,4420.55 10224.54,4421.13 9262.74,4976.21 9021.4,5115.74 8257.24,4674.04 8059.74,4560.08 8238.11,4457.4 9262.74,3865.47 "/>
   <polygon class="fil2" points="7339,6086.68 7339,6087.1 7278.02,6122.38 6378.2,6641.76 6377.2,6641.76 5415.54,6086.68 6377.2,5531.45 7306.3,6067.4 "/>
   <polygon class="fil3" points="5112.79,1118.02 4150.99,1673.25 4150.56,1673.25 2227.1,2783.57 2227.1,3894.46 3188.76,3339.23 4150.99,2784.14 5112.79,2228.91 6074.45,2784.14 7036.25,2228.91 7036.25,2228.34 "/>
   <polygon class="fil3" points="8959.85,2228.91 8959.85,3339.23 7998.05,3894.46 7800.55,4008.27 7036.39,4449.69 7035.82,4449.69 7035.82,4450.12 5112.93,5560.43 5112.93,4450.12 6074.16,3894.46 7035.82,3339.23 7036.39,3339.23 7998.05,2784.14 "/>
   <polygon class="fil3" points="4809.04,6086.68 4809.04,11639.84 3847.24,12195.07 3847.24,6641.76 "/>
   <polygon class="fil3" points="1923.5,4420.55 1923.5,6642.34 961.84,7197.42 961.84,4975.79 "/>
   <polygon class="fil3" points="1923.5,8863.54 1923.5,9973.86 961.84,10529.1 961.84,8308.31 "/>
   <polygon class="fil3" points="10224.54,4421.27 9021.4,5116.02 7338.71,8307.46 7338.71,6087.25 6378.05,6641.48 6377.48,6642.48 6377.48,12194.79 6378.05,12194.79 7338.71,11640.56 7338.71,9331.24 9158.92,10604.35 10224.54,9973.58 9349.85,9368.51 9262.74,9308.53 8473.88,8762.87 8301.08,8643.48 8145.85,8536.23 10224.54,4421.84 "/>
  </g>
 </g>
</svg>
